<?xml version="1.0" standalone="no"?>
<!DOCTYPE svg PUBLIC "-//W3C//DTD SVG 20010904//EN"
 "http://www.w3.org/TR/2001/REC-SVG-20010904/DTD/svg10.dtd">
<svg version="1.0" xmlns="http://www.w3.org/2000/svg"
 width="360.000000pt" height="360.000000pt" viewBox="0 0 360.000000 360.000000"
 preserveAspectRatio="xMidYMid meet">
<metadata>
Created by potrace 1.13, written by Peter Selinger 2001-2015
</metadata>
<g transform="translate(0.000000,360.000000) scale(0.100000,-0.100000)"
fill="#000000" stroke="none">
<path d="M1545 3446 c-699 -117 -1237 -635 -1378 -1330 -19 -95 -22 -142 -22
-326 1 -236 13 -319 75 -512 41 -127 146 -333 227 -448 83 -116 249 -286 361
-368 327 -242 743 -360 1137 -323 154 15 244 34 386 81 822 273 1296 1133
1089 1975 -78 316 -228 575 -467 806 -224 216 -498 362 -810 430 -125 27 -472
36 -598 15z m157 -606 c84 -26 146 -74 183 -141 l30 -54 3 -308 c3 -284 4
-308 20 -302 38 14 182 26 252 20 161 -13 280 -74 329 -170 24 -46 26 -59 26
-185 0 -150 -7 -173 -71 -248 -61 -72 -106 -86 -285 -92 -147 -5 -158 -6 -196
-32 -58 -39 -73 -77 -73 -195 0 -157 40 -204 185 -211 121 -7 206 32 220 101
14 71 7 67 121 67 l104 0 0 -48 c0 -196 -154 -311 -416 -312 -201 0 -345 66
-400 184 -23 50 -24 57 -24 353 l0 302 -32 -10 c-18 -5 -78 -12 -133 -16 -217
-13 -372 48 -438 172 -17 33 -22 62 -25 161 -5 152 10 210 69 278 52 59 55 61
293 144 114 41 208 80 222 93 32 30 47 81 42 141 -10 100 -74 143 -213 143
-129 -1 -182 -36 -200 -131 l-6 -34 -106 0 -106 0 5 73 c3 46 13 87 26 113 42
83 143 144 272 164 84 13 247 3 322 -20z"/>
<path d="M1695 2181 c-6 -6 -80 -35 -165 -66 -170 -61 -212 -89 -231 -159 -12
-46 -4 -120 18 -157 25 -42 69 -62 149 -67 139 -9 209 27 234 118 14 51 9 345
-5 331z"/>
<path d="M2036 1856 c-27 -8 -61 -27 -80 -45 l-31 -31 -3 -147 c-3 -142 -3
-147 15 -131 29 26 91 38 198 38 110 0 147 14 182 67 26 40 24 153 -3 190 -46
61 -173 89 -278 59z"/>
</g>
</svg>
